<svg xmlns="http://www.w3.org/2000/svg" version="1.1" xmlns:xlink="http://www.w3.org/1999/xlink" xmlns:svgjs="http://svgjs.dev/svgjs" width="2000" height="2250" viewBox="0 0 2000 2250"><g transform="matrix(1,0,0,1,0,0)"><svg viewBox="0 0 320 360" data-background-color="#ffffff" preserveAspectRatio="xMidYMid meet" height="2250" width="2000" xmlns="http://www.w3.org/2000/svg" xmlns:xlink="http://www.w3.org/1999/xlink"><g id="tight-bounds" transform="matrix(1,0,0,1,0,0)"><svg viewBox="0 0 320 360" height="360" width="320"><g><svg></svg></g><g><svg viewBox="0 0 320 360" height="360" width="320"><g><path d="M297.491 100.645c-12.426-21.51-112.674-79.355-137.491-79.355-24.817 0-125.028 57.845-137.491 79.355-11.591 20.02-11.591 138.726 0 158.746 12.463 21.474 112.674 79.319 137.491 79.319 24.817 0 125.064-57.845 137.491-79.355 11.591-20.02 11.591-138.69 0-158.71zM309.481 93.705c-14.461-24.998-119.469-86.295-149.481-86.295-30.012 0-135.02 61.297-149.481 86.295-14.025 24.199-14.025 148.391 0 172.59 14.461 24.998 119.469 86.295 149.481 86.295 30.012 0 135.02-61.297 149.481-86.259 14.025-24.235 14.025-148.427 0-172.626zM300.906 261.353c-12.753 22.055-115.472 81.317-140.906 81.318-25.434 0-128.153-59.298-140.906-81.354-11.881-20.529-11.881-142.178 0-162.707 12.753-22.019 115.472-81.281 140.906-81.281 25.434 0 128.153 59.298 140.906 81.318 11.881 20.529 11.881 142.178 0 162.706z" fill="#ff0000" fill-rule="nonzero" stroke="none" stroke-width="1" stroke-linecap="butt" stroke-linejoin="miter" stroke-miterlimit="10" stroke-dasharray="" stroke-dashoffset="0" font-family="none" font-weight="none" font-size="none" text-anchor="none" style="mix-blend-mode: normal" data-fill-palette-color="tertiary"></path></g><g transform="matrix(1,0,0,1,83.51778656126483,90.00000000000001)"><svg viewBox="0 0 152.96442687747034 179.99999999999997" height="179.99999999999997" width="152.96442687747034"><g><svg viewBox="0 0 152.96442687747034 179.99999999999997" height="179.99999999999997" width="152.96442687747034"><g><svg viewBox="0 0 152.96442687747034 179.99999999999997" height="179.99999999999997" width="152.96442687747034"><g id="textblocktransform"><svg viewBox="0 0 152.96442687747034 179.99999999999997" height="179.99999999999997" width="152.96442687747034" id="textblock"><g><svg viewBox="0 0 152.96442687747034 179.99999999999997" height="179.99999999999997" width="152.96442687747034"><g transform="matrix(1,0,0,1,0,0)"><svg width="152.96442687747034" viewBox="0.05 -37.95 32.25 37.95" height="179.99999999999997" data-palette-color="#ffffff"><path d="M32.3 0L26.9 0Q26.65-0.55 26.2-1.6 25.75-2.65 25.18-4.03 24.6-5.4 23.93-7.03 23.25-8.65 22.55-10.4L22.55-10.4 9.75-10.4 5.45 0 0.05 0 16.2-37.95Q16.5-37.25 17.28-35.4 18.05-33.55 19.13-30.98 20.2-28.4 21.53-25.28 22.85-22.15 24.23-18.95 25.6-15.75 26.93-12.65 28.25-9.55 29.35-6.95 30.45-4.35 31.23-2.53 32-0.7 32.3 0L32.3 0ZM15.65-24.7L11.65-15 20.7-15Q20-16.65 19.38-18.18 18.75-19.7 18.23-20.98 17.7-22.25 17.3-23.2 16.9-24.15 16.7-24.7L16.7-24.7Q16.65-24.8 16.48-25.4 16.3-26 16.2-26.5L16.2-26.5Q16.1-26 15.9-25.4 15.7-24.8 15.65-24.7L15.65-24.7Z" opacity="1" transform="matrix(1,0,0,1,0,0)" fill="#ffffff" class="wordmark-text-0" data-fill-palette-color="quaternary" id="text-0"></path></svg></g></svg></g></svg></g></svg></g></svg></g></svg></g></svg></g><defs></defs></svg><rect width="320" height="360" fill="none" stroke="none" visibility="hidden"></rect></g></svg></g></svg>